# Aspose.3D Wavefront OBJ Exporter
# Copyright 2004-2024 Aspose Pty Ltd.
# File created: 01/28/2025 04:34:56

mtllib material.lib
g Sheep

#
# object Sheep
#

v -4.0000005 -0.5750124 -9.97609
v 3.9999998 -0.5750124 -9.97609
v -4.0000005 5.424988 -9.976089
v 3.9999998 5.424988 -9.976089
v -4.0000005 -0.575015 6.02391
v 3.9999998 -0.575015 6.02391
v -4.0000005 5.424985 6.023911
v 3.9999998 5.424985 6.023911
v -3.0000002 3.4249868 4.0239105
v 2.9999998 3.4249868 4.0239105
v -3.0000002 9.424987 4.0239115
v 2.9999998 9.424987 4.0239115
v -3.0000002 3.4249854 12.0239105
v 2.9999998 3.4249854 12.0239105
v -3.0000002 9.424986 12.023911
v 2.9999998 9.424986 12.023911
v -5.0000005 -12.575012 1.0239099
v -1.0000002 -12.575012 1.0239099
v -5.0000005 -0.57501227 1.023912
v -1.0000002 -0.57501227 1.023912
v -5.0000005 -12.575013 5.02391
v -1.0000002 -12.575013 5.02391
v -5.0000005 -0.5750129 5.023912
v -1.0000002 -0.5750129 5.023912
v 0.99999976 -12.575012 1.0239099
v 4.9999995 -12.575012 1.0239099
v 0.99999976 -0.57501227 1.023912
v 4.9999995 -0.57501227 1.023912
v 0.99999976 -12.575013 5.02391
v 4.9999995 -12.575013 5.02391
v 0.99999976 -0.5750129 5.023912
v 4.9999995 -0.5750129 5.023912
v -5 -12.575012 -10.97609
v -0.99999976 -12.575012 -10.97609
v -5 -0.57501227 -10.976089
v -0.99999976 -0.57501227 -10.976089
v -5 -12.575013 -6.97609
v -0.99999976 -12.575013 -6.97609
v -5 -0.57501286 -6.976088
v -0.99999976 -0.57501286 -6.976088
v 1.0000002 -12.575012 -10.97609
v 5 -12.575012 -10.97609
v 1.0000002 -0.57501227 -10.976089
v 5 -0.57501227 -10.976089
v 1.0000002 -12.575013 -6.97609
v 5 -12.575013 -6.97609
v 1.0000002 -0.57501286 -6.976088
v 5 -0.57501286 -6.976088
# 48 vertices

vn 0 1.6292068E-07 -1
vn 0 1.6292068E-07 -1
vn 0 1.6292068E-07 -1
vn 0 1.6292068E-07 -1
vn 0 -1.6292068E-07 1
vn 0 -1.6292068E-07 1
vn 0 -1.6292068E-07 1
vn 0 -1.6292068E-07 1
vn 0 -1 -1.6292068E-07
vn 0 -1 -1.6292068E-07
vn 0 -1 -1.6292068E-07
vn 0 -1 -1.6292068E-07
vn 1 0 0
vn 1 0 0
vn 1 0 0
vn 1 0 0
vn 0 1 1.6292068E-07
vn 0 1 1.6292068E-07
vn 0 1 1.6292068E-07
vn 0 1 1.6292068E-07
vn -1 0 0
vn -1 0 0
vn -1 0 0
vn -1 0 0
vn 0 1.6292068E-07 -1
vn 0 1.6292068E-07 -1
vn 0 1.6292068E-07 -1
vn 0 1.6292068E-07 -1
vn 0 -1.6292068E-07 1
vn 0 -1.6292068E-07 1
vn 0 -1.6292068E-07 1
vn 0 -1.6292068E-07 1
vn 0 -1 -1.6292068E-07
vn 0 -1 -1.6292068E-07
vn 0 -1 -1.6292068E-07
vn 0 -1 -1.6292068E-07
vn 1 0 0
vn 1 0 0
vn 1 0 0
vn 1 0 0
vn 0 1 1.6292068E-07
vn 0 1 1.6292068E-07
vn 0 1 1.6292068E-07
vn 0 1 1.6292068E-07
vn -1 0 0
vn -1 0 0
vn -1 0 0
vn -1 0 0
vn 0 1.6292068E-07 -1
vn 0 1.6292068E-07 -1
vn 0 1.6292068E-07 -1
vn 0 1.6292068E-07 -1
vn 0 -1.6292068E-07 1
vn 0 -1.6292068E-07 1
vn 0 -1.6292068E-07 1
vn 0 -1.6292068E-07 1
vn 0 -1 -1.6292068E-07
vn 0 -1 -1.6292068E-07
vn 0 -1 -1.6292068E-07
vn 0 -1 -1.6292068E-07
vn 1 0 0
vn 1 0 0
vn 1 0 0
vn 1 0 0
vn 0 1 1.6292068E-07
vn 0 1 1.6292068E-07
vn 0 1 1.6292068E-07
vn 0 1 1.6292068E-07
vn -1 0 0
vn -1 0 0
vn -1 0 0
vn -1 0 0
vn 0 1.6292068E-07 -1
vn 0 1.6292068E-07 -1
vn 0 1.6292068E-07 -1
vn 0 1.6292068E-07 -1
vn 0 -1.6292068E-07 1
vn 0 -1.6292068E-07 1
vn 0 -1.6292068E-07 1
vn 0 -1.6292068E-07 1
vn 0 -1 -1.6292068E-07
vn 0 -1 -1.6292068E-07
vn 0 -1 -1.6292068E-07
vn 0 -1 -1.6292068E-07
vn 1 0 0
vn 1 0 0
vn 1 0 0
vn 1 0 0
vn 0 1 1.6292068E-07
vn 0 1 1.6292068E-07
vn 0 1 1.6292068E-07
vn 0 1 1.6292068E-07
vn -1 0 0
vn -1 0 0
vn -1 0 0
vn -1 0 0
vn 0 1.6292068E-07 -1
vn 0 1.6292068E-07 -1
vn 0 1.6292068E-07 -1
vn 0 1.6292068E-07 -1
vn 0 -1.6292068E-07 1
vn 0 -1.6292068E-07 1
vn 0 -1.6292068E-07 1
vn 0 -1.6292068E-07 1
vn 0 -1 -1.6292068E-07
vn 0 -1 -1.6292068E-07
vn 0 -1 -1.6292068E-07
vn 0 -1 -1.6292068E-07
vn 1 0 0
vn 1 0 0
vn 1 0 0
vn 1 0 0
vn 0 1 1.6292068E-07
vn 0 1 1.6292068E-07
vn 0 1 1.6292068E-07
vn 0 1 1.6292068E-07
vn -1 0 0
vn -1 0 0
vn -1 0 0
vn -1 0 0
vn 0 1.6292068E-07 -1
vn 0 1.6292068E-07 -1
vn 0 1.6292068E-07 -1
vn 0 1.6292068E-07 -1
vn 0 -1.6292068E-07 1
vn 0 -1.6292068E-07 1
vn 0 -1.6292068E-07 1
vn 0 -1.6292068E-07 1
vn 0 -1 -1.6292068E-07
vn 0 -1 -1.6292068E-07
vn 0 -1 -1.6292068E-07
vn 0 -1 -1.6292068E-07
vn 1 0 0
vn 1 0 0
vn 1 0 0
vn 1 0 0
vn 0 1 1.6292068E-07
vn 0 1 1.6292068E-07
vn 0 1 1.6292068E-07
vn 0 1 1.6292068E-07
vn -1 0 0
vn -1 0 0
vn -1 0 0
vn -1 0 0
# 144 vertex normals

vt 0.8125 0.875 0
vt 0.8125 0.7814371 0
vt 0.5312036 0.781332 0
vt 0.5312036 0.875 0
vt 0.67162764 0.875 0
vt 0.875 0.53168947 0
vt 0.875 0.7812857 0
vt 0.7502526 0.7812857 0
vt 0.75 0.53168947 0
vt 0.6717202 0.7814371 0
vt 0.67162764 0.875 0
vt 0.75 0.53168947 0
vt 0.6561099 0.53168947 0
vt 0.530951 0.5317358 0
vt 0.6561099 0.53168947 0
vt 0.6717202 0.7814371 0
vt 0.4375 0.53168947 0
vt 0.530951 0.5317358 0
vt 0.65636253 0.7812857 0
vt 0.5312036 0.781332 0
vt 0.5312036 0.781332 0
vt 0.4375 0.7812857 0
vt 0.7502526 0.7812857 0
vt 0.65636253 0.7812857 0
vt 0.43747863 0.875 0
vt 0.21876 1 0
vt 0.125 0.7814258 0
vt 0.125 0.875 0
vt 0.34375998 0.875 0
vt 0.125 0.7814258 0
vt 0.125 0.875 0
vt 0.21876001 0.875 0
vt 0.125 0.875 0
vt 0.21876 0.7814258 0
vt 0.21876 0.875 0
vt 0 0.875 0
vt 0 0.7814258 0
vt 0.34375998 0.875 0
vt 0.34375998 0.7814258 0
vt 0.3125758 1 0
vt 0.125 1 0
vt 0.21876 1 0
vt 0.31269073 0.875 0
vt 0.21876001 0.875 0
vt 0.43747863 0.7814258 0
vt 0.34375998 0.7814258 0
vt 0.21876001 0.875 0
vt 0.21876001 0.7814258 0
vt 0.0625 0.75 0
vt 0.125 0.75 0
vt 0.0625 0.5 0
vt 0.0625 0.6875 0
vt 0.125 0.75 0
vt 0.0625 0.5 0
vt 0.0625 0.6875 0
vt 0.125 0.6875 0
vt 0.0625 0.6875 0
vt 0.125 0.5 0
vt 0.125 0.6875 0
vt 0 0.6875 0
vt 0 0.5 0
vt 0.1875 0.6875 0
vt 0.1875 0.5 0
vt 0.1875 0.75 0
vt 0.25 0.6875 0
vt 0.25 0.5 0
vt 0.1875 0.6875 0
vt 0.125 0.6875 0
vt 0.1875 0.6875 0
vt 0.1875 0.5 0
vt 0.125 0.6875 0
vt 0.125 0.5 0
vt 0.0625 0.75 0
vt 0.125 0.75 0
vt 0.0625 0.5 0
vt 0.0625 0.6875 0
vt 0.125 0.75 0
vt 0.0625 0.5 0
vt 0.0625 0.6875 0
vt 0.125 0.6875 0
vt 0.0625 0.6875 0
vt 0.125 0.5 0
vt 0.125 0.6875 0
vt 0 0.6875 0
vt 0 0.5 0
vt 0.1875 0.6875 0
vt 0.1875 0.5 0
vt 0.1875 0.75 0
vt 0.25 0.6875 0
vt 0.25 0.5 0
vt 0.1875 0.6875 0
vt 0.125 0.6875 0
vt 0.1875 0.6875 0
vt 0.1875 0.5 0
vt 0.125 0.6875 0
vt 0.125 0.5 0
vt 0.0625 0.75 0
vt 0.125 0.75 0
vt 0.0625 0.5 0
vt 0.0625 0.6875 0
vt 0.125 0.75 0
vt 0.0625 0.5 0
vt 0.0625 0.6875 0
vt 0.125 0.6875 0
vt 0.0625 0.6875 0
vt 0.125 0.5 0
vt 0.125 0.6875 0
vt 0 0.6875 0
vt 0 0.5 0
vt 0.1875 0.6875 0
vt 0.1875 0.5 0
vt 0.1875 0.75 0
vt 0.25 0.6875 0
vt 0.25 0.5 0
vt 0.1875 0.6875 0
vt 0.125 0.6875 0
vt 0.1875 0.6875 0
vt 0.1875 0.5 0
vt 0.125 0.6875 0
vt 0.125 0.5 0
vt 0.0625 0.75 0
vt 0.125 0.75 0
vt 0.0625 0.5 0
vt 0.0625 0.6875 0
vt 0.125 0.75 0
vt 0.0625 0.5 0
vt 0.0625 0.6875 0
vt 0.125 0.6875 0
vt 0.0625 0.6875 0
vt 0.125 0.5 0
vt 0.125 0.6875 0
vt 0 0.6875 0
vt 0 0.5 0
vt 0.1875 0.6875 0
vt 0.1875 0.5 0
vt 0.1875 0.75 0
vt 0.25 0.6875 0
vt 0.25 0.5 0
vt 0.1875 0.6875 0
vt 0.125 0.6875 0
vt 0.1875 0.6875 0
vt 0.1875 0.5 0
vt 0.125 0.6875 0
vt 0.125 0.5 0
# 144 texture coords

usemtl Sheep
s 1
f 1/2/1 3/1/2 4/5/3 2/16/4
f 5/3/5 6/10/6 8/11/7 7/4/8
f 1/14/9 2/15/10 6/19/11 5/20/12
f 2/13/13 4/12/14 8/23/15 6/24/16
f 4/9/17 3/6/18 7/7/19 8/8/20
f 3/17/21 1/18/22 5/21/23 7/22/24
f 9/45/25 11/25/26 12/29/27 10/46/28
f 13/30/29 14/34/30 16/35/31 15/33/32
f 9/26/33 10/40/34 14/43/35 13/44/36
f 10/39/37 12/38/38 16/47/39 14/48/40
f 12/42/41 11/41/42 15/31/43 16/32/44
f 11/36/45 9/37/46 13/27/47 15/28/48
f 17/66/49 19/65/50 20/69/51 18/70/52
f 21/54/53 22/58/54 24/59/55 23/57/56
f 17/50/57 18/64/58 22/67/59 21/68/60
f 18/63/61 20/62/62 24/71/63 22/72/64
f 20/53/65 19/49/66 23/55/67 24/56/68
f 19/60/69 17/61/70 21/51/71 23/52/72
f 25/90/73 27/89/74 28/93/75 26/94/76
f 29/78/77 30/82/78 32/83/79 31/81/80
f 25/74/81 26/88/82 30/91/83 29/92/84
f 26/87/85 28/86/86 32/95/87 30/96/88
f 28/77/89 27/73/90 31/79/91 32/80/92
f 27/84/93 25/85/94 29/75/95 31/76/96
f 33/114/97 35/113/98 36/117/99 34/118/100
f 37/102/101 38/106/102 40/107/103 39/105/104
f 33/98/105 34/112/106 38/115/107 37/116/108
f 34/111/109 36/110/110 40/119/111 38/120/112
f 36/101/113 35/97/114 39/103/115 40/104/116
f 35/108/117 33/109/118 37/99/119 39/100/120
f 41/138/121 43/137/122 44/141/123 42/142/124
f 45/126/125 46/130/126 48/131/127 47/129/128
f 41/122/129 42/136/130 46/139/131 45/140/132
f 42/135/133 44/134/134 48/143/135 46/144/136
f 44/125/137 43/121/138 47/127/139 48/128/140
f 43/132/141 41/133/142 45/123/143 47/124/144
#36 polygons

g Sheep Fur

#
# object Sheep Fur
#

v -6 -2.0750122 -11.619738
v 6 -2.0750122 -11.619738
v -6 6.924988 -11.619737
v 6 6.924988 -11.619737
v -6 -2.0750153 7.667558
v 6 -2.0750153 7.667558
v -6 6.924985 7.6675596
v 6 6.924985 7.6675596
v -3.3000002 3.124987 3.9719424
v 3.3 3.124987 3.9719424
v -3.3000002 9.724987 3.9719436
v 3.3 9.724987 3.9719436
v -3.3000002 3.1249855 10.571942
v 3.3 3.1249855 10.571942
v -3.3000002 9.724986 10.571943
v 3.3 9.724986 10.571943
v -5.5 -6.5750146 0.5239107
v -0.49999988 -6.5750146 0.5239107
v -5.5 0.92498446 0.5239131
v -0.49999988 0.92498446 0.5239131
v -5.5 -6.5750155 5.5239096
v -0.49999988 -6.5750155 5.5239096
v -5.5 0.9249836 5.5239134
v -0.49999988 0.9249836 5.5239134
v 0.49999988 -6.5750146 0.5239107
v 5.5 -6.5750146 0.5239107
v 0.49999988 0.92498446 0.5239131
v 5.5 0.92498446 0.5239131
v 0.49999988 -6.5750155 5.5239096
v 5.5 -6.5750155 5.5239096
v 0.49999988 0.9249836 5.5239134
v 5.5 0.9249836 5.5239134
v -5.5 -6.5750127 -11.476089
v -0.49999952 -6.5750127 -11.476089
v -5.5 0.9249864 -11.476087
v -0.49999952 0.9249864 -11.476087
v -5.5 -6.5750136 -6.476089
v -0.49999952 -6.5750136 -6.476089
v -5.5 0.9249856 -6.4760866
v -0.49999952 0.9249856 -6.4760866
v 0.5000006 -6.5750127 -11.476089
v 5.500001 -6.5750127 -11.476089
v 0.5000006 0.9249864 -11.476087
v 5.500001 0.9249864 -11.476087
v 0.5000006 -6.5750136 -6.476089
v 5.500001 -6.5750136 -6.476089
v 0.5000006 0.9249856 -6.4760866
v 5.500001 0.9249856 -6.4760866
# 48 vertices

vn 0 1.6292068E-07 -1
vn 0 1.6292068E-07 -1
vn 0 1.6292068E-07 -1
vn 0 1.6292068E-07 -1
vn 0 -1.6292068E-07 1
vn 0 -1.6292068E-07 1
vn 0 -1.6292068E-07 1
vn 0 -1.6292068E-07 1
vn 0 -1 -1.6292068E-07
vn 0 -1 -1.6292068E-07
vn 0 -1 -1.6292068E-07
vn 0 -1 -1.6292068E-07
vn 1 0 0
vn 1 0 0
vn 1 0 0
vn 1 0 0
vn 0 1 1.6292068E-07
vn 0 1 1.6292068E-07
vn 0 1 1.6292068E-07
vn 0 1 1.6292068E-07
vn -1 0 0
vn -1 0 0
vn -1 0 0
vn -1 0 0
vn 0 1.6292068E-07 -1
vn 0 1.6292068E-07 -1
vn 0 1.6292068E-07 -1
vn 0 1.6292068E-07 -1
vn 0 -1.6292068E-07 1
vn 0 -1.6292068E-07 1
vn 0 -1.6292068E-07 1
vn 0 -1.6292068E-07 1
vn 0 -1 -2.0646661E-07
vn 0 -1 -2.0646661E-07
vn 0 -1 -2.0646661E-07
vn 0 -1 -2.0646661E-07
vn 1 0 0
vn 1 0 0
vn 1 0 0
vn 1 0 0
vn 0 1 1.6292068E-07
vn 0 1 1.6292068E-07
vn 0 1 1.6292068E-07
vn 0 1 1.6292068E-07
vn -1 0 0
vn -1 0 0
vn -1 0 0
vn -1 0 0
vn 0 3.536556E-07 -1
vn 0 3.536556E-07 -1
vn 0 3.536556E-07 -1
vn 0 3.536556E-07 -1
vn 0 -5.4439045E-07 1
vn 0 -5.4439045E-07 1
vn 0 -5.4439045E-07 1
vn 0 -5.4439045E-07 1
vn 0 -1 -1.6292068E-07
vn 0 -1 -1.6292068E-07
vn 0 -1 -1.6292068E-07
vn 0 -1 -1.6292068E-07
vn 1 0 0
vn 0.99999994 0 0
vn 0.99999994 0 0
vn 1 0 0
vn 0 1 1.6292068E-07
vn 0 1 1.6292068E-07
vn 0 1 1.6292068E-07
vn 0 1 1.6292068E-07
vn -1 0 0
vn -1 0 0
vn -1 0 0
vn -1 0 0
vn 0 3.536556E-07 -1
vn 0 3.536556E-07 -1
vn 0 3.536556E-07 -1
vn 0 3.536556E-07 -1
vn 0 -5.4439045E-07 1
vn 0 -5.4439045E-07 1
vn 0 -5.4439045E-07 1
vn 0 -5.4439045E-07 1
vn 0 -1 -1.6292068E-07
vn 0 -1 -1.6292068E-07
vn 0 -1 -1.6292068E-07
vn 0 -1 -1.6292068E-07
vn 1 0 0
vn 0.99999994 0 0
vn 0.99999994 0 0
vn 1 0 0
vn 0 1 1.6292068E-07
vn 0 1 1.6292068E-07
vn 0 1 1.6292068E-07
vn 0 1 1.6292068E-07
vn -1 0 0
vn -1 0 0
vn -1 0 0
vn -1 0 0
vn 0 3.1193233E-07 -1
vn 0 3.1193233E-07 -1
vn 0 3.1193233E-07 -1
vn 0 3.1193233E-07 -1
vn 0 -3.5365557E-07 1
vn 0 -3.5365557E-07 1
vn 0 -3.5365557E-07 1
vn 0 -3.5365557E-07 1
vn 0 -1 -1.6292068E-07
vn 0 -1 -1.6292068E-07
vn 0 -1 -1.6292068E-07
vn 0 -1 -1.6292068E-07
vn 1 0 0
vn 1 0 0
vn 1 0 0
vn 1 0 0
vn 0 1 1.6292068E-07
vn 0 1 1.6292068E-07
vn 0 1 1.6292068E-07
vn 0 1 1.6292068E-07
vn -0.99999994 0 0
vn -1 0 0
vn -0.99999994 0 0
vn -1 0 0
vn 0 3.1193233E-07 -1
vn 0 3.1193233E-07 -1
vn 0 3.1193233E-07 -1
vn 0 3.1193233E-07 -1
vn 0 -3.5365557E-07 1
vn 0 -3.5365557E-07 1
vn 0 -3.5365557E-07 1
vn 0 -3.5365557E-07 1
vn 0 -1 -1.6292068E-07
vn 0 -1 -1.6292068E-07
vn 0 -1 -1.6292068E-07
vn 0 -1 -1.6292068E-07
vn 1 0 0
vn 1 0 0
vn 1 0 0
vn 1 0 0
vn 0 1 1.6292068E-07
vn 0 1 1.6292068E-07
vn 0 1 1.6292068E-07
vn 0 1 1.6292068E-07
vn -0.99999994 0 0
vn -1 0 0
vn -0.99999994 0 0
vn -1 0 0
# 144 vertex normals

vt 0.8125 0.875 0
vt 0.8125 0.7814371 0
vt 0.5312036 0.781332 0
vt 0.5312036 0.875 0
vt 0.67162764 0.875 0
vt 0.875 0.53168947 0
vt 0.875 0.7812857 0
vt 0.7502526 0.7812857 0
vt 0.75 0.53168947 0
vt 0.6717202 0.7814371 0
vt 0.67162764 0.875 0
vt 0.75 0.53168947 0
vt 0.6561099 0.53168947 0
vt 0.530951 0.5317358 0
vt 0.6561099 0.53168947 0
vt 0.6717202 0.7814371 0
vt 0.4375 0.53168947 0
vt 0.530951 0.5317358 0
vt 0.65636253 0.7812857 0
vt 0.5312036 0.781332 0
vt 0.5312036 0.781332 0
vt 0.4375 0.7812857 0
vt 0.7502526 0.7812857 0
vt 0.65636253 0.7812857 0
vt 0.37535623 0.90567625 0
vt 0.18763107 1 0
vt 0.09394685 0.812102 0
vt 0.09394685 0.90567625 0
vt 0.28144684 0.90567625 0
vt 0.09394685 0.812102 0
vt 0.09394685 0.90567625 0
vt 0.18770686 0.90567625 0
vt 0.09394685 0.90567625 0
vt 0.18770686 0.812102 0
vt 0.18770686 0.90567625 0
vt 0.00034150342 0.90567625 0
vt 0.00034150342 0.812102 0
vt 0.28144684 0.90567625 0
vt 0.28144684 0.812102 0
vt 0.28144684 1 0
vt 0.093871064 1 0
vt 0.18763107 1 0
vt 0.28144684 0.90567625 0
vt 0.18770686 0.90567625 0
vt 0.37535623 0.812102 0
vt 0.28144684 0.812102 0
vt 0.18770686 0.90567625 0
vt 0.18770686 0.812102 0
vt 0.0625 0.75 0
vt 0.125 0.75 0
vt 0.0625 0.58108705 0
vt 0.0625 0.6875 0
vt 0.125 0.75 0
vt 0.0625 0.58108705 0
vt 0.0625 0.6875 0
vt 0.125 0.6875 0
vt 0.0625 0.6875 0
vt 0.125 0.58108705 0
vt 0.125 0.6875 0
vt 0 0.6875 0
vt 0 0.58108705 0
vt 0.1875 0.6875 0
vt 0.1875 0.58108705 0
vt 0.1875 0.75 0
vt 0.25 0.6875 0
vt 0.25 0.58108705 0
vt 0.1875 0.6875 0
vt 0.125 0.6875 0
vt 0.1875 0.6875 0
vt 0.1875 0.58108705 0
vt 0.125 0.6875 0
vt 0.125 0.58108705 0
vt 0.0625 0.75 0
vt 0.125 0.75 0
vt 0.0625 0.58108705 0
vt 0.0625 0.6875 0
vt 0.125 0.75 0
vt 0.0625 0.58108705 0
vt 0.0625 0.6875 0
vt 0.125 0.6875 0
vt 0.0625 0.6875 0
vt 0.125 0.58108705 0
vt 0.125 0.6875 0
vt 0 0.6875 0
vt 0 0.58108705 0
vt 0.1875 0.6875 0
vt 0.1875 0.58108705 0
vt 0.1875 0.75 0
vt 0.25 0.6875 0
vt 0.25 0.58108705 0
vt 0.1875 0.6875 0
vt 0.125 0.6875 0
vt 0.1875 0.6875 0
vt 0.1875 0.58108705 0
vt 0.125 0.6875 0
vt 0.125 0.58108705 0
vt 0.0625 0.75 0
vt 0.125 0.75 0
vt 0.0625 0.58108705 0
vt 0.0625 0.6875 0
vt 0.125 0.75 0
vt 0.0625 0.58108705 0
vt 0.0625 0.6875 0
vt 0.125 0.6875 0
vt 0.0625 0.6875 0
vt 0.125 0.58108705 0
vt 0.125 0.6875 0
vt 0 0.6875 0
vt 0 0.58108705 0
vt 0.1875 0.6875 0
vt 0.1875 0.58108705 0
vt 0.1875 0.75 0
vt 0.25 0.6875 0
vt 0.25 0.58108705 0
vt 0.1875 0.6875 0
vt 0.125 0.6875 0
vt 0.1875 0.6875 0
vt 0.1875 0.58108705 0
vt 0.125 0.6875 0
vt 0.125 0.58108705 0
vt 0.0625 0.75 0
vt 0.125 0.75 0
vt 0.0625 0.58108705 0
vt 0.0625 0.6875 0
vt 0.125 0.75 0
vt 0.0625 0.58108705 0
vt 0.0625 0.6875 0
vt 0.125 0.6875 0
vt 0.0625 0.6875 0
vt 0.125 0.58108705 0
vt 0.125 0.6875 0
vt 0 0.6875 0
vt 0 0.58108705 0
vt 0.1875 0.6875 0
vt 0.1875 0.58108705 0
vt 0.1875 0.75 0
vt 0.25 0.6875 0
vt 0.25 0.58108705 0
vt 0.1875 0.6875 0
vt 0.125 0.6875 0
vt 0.1875 0.6875 0
vt 0.1875 0.58108705 0
vt 0.125 0.6875 0
vt 0.125 0.58108705 0
# 144 texture coords

usemtl Sheep Fur
s 2
f 49/146/145 51/145/146 52/149/147 50/160/148
f 53/147/149 54/154/150 56/155/151 55/148/152
f 49/158/153 50/159/154 54/163/155 53/164/156
f 50/157/157 52/156/158 56/167/159 54/168/160
f 52/153/161 51/150/162 55/151/163 56/152/164
f 51/161/165 49/162/166 53/165/167 55/166/168
f 57/189/169 59/169/170 60/173/171 58/190/172
f 61/174/173 62/178/174 64/179/175 63/177/176
f 57/170/177 58/184/178 62/187/179 61/188/180
f 58/183/181 60/182/182 64/191/183 62/192/184
f 60/186/185 59/185/186 63/175/187 64/176/188
f 59/180/189 57/181/190 61/171/191 63/172/192
f 65/210/193 67/209/194 68/213/195 66/214/196
f 69/198/197 70/202/198 72/203/199 71/201/200
f 65/194/201 66/208/202 70/211/203 69/212/204
f 66/207/205 68/206/206 72/215/207 70/216/208
f 68/197/209 67/193/210 71/199/211 72/200/212
f 67/204/213 65/205/214 69/195/215 71/196/216
f 73/234/217 75/233/218 76/237/219 74/238/220
f 77/222/221 78/226/222 80/227/223 79/225/224
f 73/218/225 74/232/226 78/235/227 77/236/228
f 74/231/229 76/230/230 80/239/231 78/240/232
f 76/221/233 75/217/234 79/223/235 80/224/236
f 75/228/237 73/229/238 77/219/239 79/220/240
f 81/258/241 83/257/242 84/261/243 82/262/244
f 85/246/245 86/250/246 88/251/247 87/249/248
f 81/242/249 82/256/250 86/259/251 85/260/252
f 82/255/253 84/254/254 88/263/255 86/264/256
f 84/245/257 83/241/258 87/247/259 88/248/260
f 83/252/261 81/253/262 85/243/263 87/244/264
f 89/282/265 91/281/266 92/285/267 90/286/268
f 93/270/269 94/274/270 96/275/271 95/273/272
f 89/266/273 90/280/274 94/283/275 93/284/276
f 90/279/277 92/278/278 96/287/279 94/288/280
f 92/269/281 91/265/282 95/271/283 96/272/284
f 91/276/285 89/277/286 93/267/287 95/268/288
#36 polygons

