# Aspose.3D Wavefront OBJ Exporter
# Copyright 2004-2024 Aspose Pty Ltd.
# File created: 01/28/2025 04:35:49

mtllib material.lib
g Box006

#
# object Box006
#

v -2.9999995 2.3841858E-07 1.5633965
v 3.0000005 2.3841858E-07 1.5633965
v -2.9999995 2.3841858E-07 -7.4366035
v 3.0000005 2.3841858E-07 -7.4366035
v -2.9999995 6 1.5633965
v 3.0000005 6 1.5633965
v -2.9999995 6 -7.4366035
v 3.0000005 6 -7.4366035
v -4 -2.3841858E-07 7.5633965
v 4 -2.3841858E-07 7.5633965
v -4 -2.3841858E-07 1.5633965
v 4 -2.3841858E-07 1.5633965
v -4 6.9999995 7.5633965
v 4 6.9999995 7.5633965
v -4 7 1.5633965
v 4 7 1.5633965
v -3 -2.3841858E-07 10.563396
v 3 -2.3841858E-07 10.563396
v -3 -2.3841858E-07 6.5633965
v 3 -2.3841858E-07 6.5633965
v -3 5.9999995 10.563396
v 3 5.9999995 10.563396
v -3 5.9999995 6.5633965
v 3 5.9999995 6.5633965
v -3 5.9999995 8.563396
v -0.99999994 5.9999995 8.563396
v -3 5.9999995 7.5633965
v -0.99999994 5.9999995 7.5633965
v -3 7.9999995 8.563396
v -0.99999994 7.9999995 8.563396
v -3 7.9999995 7.5633965
v -0.99999994 7.9999995 7.5633965
v 0.99999994 5.9999995 8.563396
v 3 5.9999995 8.563396
v 0.99999994 5.9999995 7.5633965
v 3 5.9999995 7.5633965
v 0.99999994 7.9999995 8.563396
v 3 7.9999995 8.563396
v 0.99999994 7.9999995 7.5633965
v 3 7.9999995 7.5633965
v -1.5 -2.3841858E-07 13.563396
v 1.5 -2.3841858E-07 13.563396
v -1.5 -2.3841858E-07 9.563396
v 1.5 -2.3841858E-07 9.563396
v -1.5 2.9999998 13.563396
v 1.5 2.9999998 13.563396
v -1.5 2.9999998 9.563396
v 1.5 2.9999998 9.563396
v -3 -8 7.5633965
v -0.99999994 -8 7.5633965
v -3 -8 5.5633965
v -0.99999994 -8 5.5633965
v -3 2.3841858E-07 7.5633965
v -0.99999994 2.3841858E-07 7.5633965
v -3 2.3841858E-07 5.5633965
v -0.99999994 2.3841858E-07 5.5633965
v 0.99999994 -8 7.5633965
v 3 -8 7.5633965
v 0.99999994 -8 5.5633965
v 3 -8 5.5633965
v 0.99999994 2.3841858E-07 7.5633965
v 3 2.3841858E-07 7.5633965
v 0.99999994 2.3841858E-07 5.5633965
v 3 2.3841858E-07 5.5633965
v -3 -8 -5.4366035
v -0.99999994 -8 -5.4366035
v -3 -8 -7.4366035
v -0.99999994 -8 -7.4366035
v -3 2.3841858E-07 -5.4366035
v -0.99999994 2.3841858E-07 -5.4366035
v -3 2.3841858E-07 -7.4366035
v -0.99999994 2.3841858E-07 -7.4366035
v 0.99999994 -8 -5.4366035
v 3 -8 -5.4366035
v 0.99999994 -8 -7.4366035
v 3 -8 -7.4366035
v 0.99999994 2.3841858E-07 -5.4366035
v 3 2.3841858E-07 -5.4366035
v 0.99999994 2.3841858E-07 -7.4366035
v 3 2.3841858E-07 -7.4366035
v -1 2.1808476 -5.8630266
v 1 2.1808476 -5.8630266
v -1 -2.407764 -12.416244
v 1 -2.407764 -12.416244
v -1 3.8191519 -7.0101795
v 1 3.8191519 -7.0101795
v -1 -0.76945984 -13.563396
v 1 -0.76945984 -13.563396
# 88 vertices

vn 0 -1 -2.220446E-16
vn 0 -1 -2.220446E-16
vn 0 -1 -2.220446E-16
vn 0 -1 -2.220446E-16
vn 0 1 2.220446E-16
vn 0 1 2.220446E-16
vn 0 1 2.220446E-16
vn 0 1 2.220446E-16
vn 1 0 0
vn 1 0 0
vn 1 0 0
vn 1 0 0
vn 0 2.220446E-16 -1
vn 0 2.220446E-16 -1
vn 0 2.220446E-16 -1
vn 0 2.220446E-16 -1
vn -1 0 0
vn -1 0 0
vn -1 0 0
vn -1 0 0
vn 0 -1 -2.220446E-16
vn 0 -1 -2.220446E-16
vn 0 -1 -2.220446E-16
vn 0 -1 -2.220446E-16
vn 0 1 2.220446E-16
vn 0 1 2.220446E-16
vn 0 1 2.220446E-16
vn 0 1 2.220446E-16
vn 0 -2.220446E-16 1
vn 0 -2.220446E-16 1
vn 0 -2.220446E-16 1
vn 0 -2.220446E-16 1
vn 1 0 0
vn 1 0 0
vn 1 0 0
vn 1 0 0
vn 0 2.220446E-16 -1
vn 0 2.220446E-16 -1
vn 0 2.220446E-16 -1
vn 0 2.220446E-16 -1
vn -1 0 0
vn -1 0 0
vn -1 0 0
vn -1 0 0
vn 0 -1 -2.220446E-16
vn 0 -1 -2.220446E-16
vn 0 -1 -2.220446E-16
vn 0 -1 -2.220446E-16
vn 0 1 2.220446E-16
vn 0 1 2.220446E-16
vn 0 1 2.220446E-16
vn 0 1 2.220446E-16
vn 0 -2.220446E-16 1
vn 0 -2.220446E-16 1
vn 0 -2.220446E-16 1
vn 0 -2.220446E-16 1
vn 1 0 0
vn 1 0 0
vn 1 0 0
vn 1 0 0
vn 0 2.220446E-16 -1
vn 0 2.220446E-16 -1
vn 0 2.220446E-16 -1
vn 0 2.220446E-16 -1
vn -1 0 0
vn -1 0 0
vn -1 0 0
vn -1 0 0
vn 0 -1 -2.220446E-16
vn 0 -1 -2.220446E-16
vn 0 -1 -2.220446E-16
vn 0 -1 -2.220446E-16
vn 0 1 2.220446E-16
vn 0 1 2.220446E-16
vn 0 1 2.220446E-16
vn 0 1 2.220446E-16
vn 0 -2.220446E-16 1
vn 0 -2.220446E-16 1
vn 0 -2.220446E-16 1
vn 0 -2.220446E-16 1
vn 1 0 0
vn 1 0 0
vn 1 0 0
vn 1 0 0
vn 0 2.220446E-16 -1
vn 0 2.220446E-16 -1
vn 0 2.220446E-16 -1
vn 0 2.220446E-16 -1
vn -1 0 0
vn -1 0 0
vn -1 0 0
vn -1 0 0
vn 0 -1 -2.220446E-16
vn 0 -1 -2.220446E-16
vn 0 -1 -2.220446E-16
vn 0 -1 -2.220446E-16
vn 0 1 2.220446E-16
vn 0 1 2.220446E-16
vn 0 1 2.220446E-16
vn 0 1 2.220446E-16
vn 0 -2.220446E-16 1
vn 0 -2.220446E-16 1
vn 0 -2.220446E-16 1
vn 0 -2.220446E-16 1
vn 1 0 0
vn 1 0 0
vn 1 0 0
vn 1 0 0
vn 0 2.220446E-16 -1
vn 0 2.220446E-16 -1
vn 0 2.220446E-16 -1
vn 0 2.220446E-16 -1
vn -1 0 0
vn -1 0 0
vn -1 0 0
vn -1 0 0
vn 0 -1 -2.220446E-16
vn 0 -1 -2.220446E-16
vn 0 -1 -2.220446E-16
vn 0 -1 -2.220446E-16
vn 0 1 2.220446E-16
vn 0 1 2.220446E-16
vn 0 1 2.220446E-16
vn 0 1 2.220446E-16
vn 0 -2.220446E-16 1
vn 0 -2.220446E-16 1
vn 0 -2.220446E-16 1
vn 0 -2.220446E-16 1
vn 1 0 0
vn 1 0 0
vn 1 0 0
vn 1 0 0
vn 0 2.220446E-16 -1
vn 0 2.220446E-16 -1
vn 0 2.220446E-16 -1
vn 0 2.220446E-16 -1
vn -1 0 0
vn -1 0 0
vn -1 0 0
vn -1 0 0
vn 0 -1 -2.220446E-16
vn 0 -1 -2.220446E-16
vn 0 -1 -2.220446E-16
vn 0 -1 -2.220446E-16
vn 0 1 2.220446E-16
vn 0 1 2.220446E-16
vn 0 1 2.220446E-16
vn 0 1 2.220446E-16
vn 0 -2.220446E-16 1
vn 0 -2.220446E-16 1
vn 0 -2.220446E-16 1
vn 0 -2.220446E-16 1
vn 1 0 0
vn 1 0 0
vn 1 0 0
vn 1 0 0
vn 0 2.220446E-16 -1
vn 0 2.220446E-16 -1
vn 0 2.220446E-16 -1
vn 0 2.220446E-16 -1
vn -1 0 0
vn -1 0 0
vn -1 0 0
vn -1 0 0
vn 0 -1 -2.220446E-16
vn 0 -1 -2.220446E-16
vn 0 -1 -2.220446E-16
vn 0 -1 -2.220446E-16
vn 0 1 2.220446E-16
vn 0 1 2.220446E-16
vn 0 1 2.220446E-16
vn 0 1 2.220446E-16
vn 0 -2.220446E-16 1
vn 0 -2.220446E-16 1
vn 0 -2.220446E-16 1
vn 0 -2.220446E-16 1
vn 1 0 0
vn 1 0 0
vn 1 0 0
vn 1 0 0
vn 0 2.220446E-16 -1
vn 0 2.220446E-16 -1
vn 0 2.220446E-16 -1
vn 0 2.220446E-16 -1
vn -1 0 0
vn -1 0 0
vn -1 0 0
vn -1 0 0
vn 0 -1 -2.220446E-16
vn 0 -1 -2.220446E-16
vn 0 -1 -2.220446E-16
vn 0 -1 -2.220446E-16
vn 0 1 2.220446E-16
vn 0 1 2.220446E-16
vn 0 1 2.220446E-16
vn 0 1 2.220446E-16
vn 0 -2.220446E-16 1
vn 0 -2.220446E-16 1
vn 0 -2.220446E-16 1
vn 0 -2.220446E-16 1
vn 1 0 0
vn 1 0 0
vn 1 0 0
vn 1 0 0
vn 0 2.220446E-16 -1
vn 0 2.220446E-16 -1
vn 0 2.220446E-16 -1
vn 0 2.220446E-16 -1
vn -1 0 0
vn -1 0 0
vn -1 0 0
vn -1 0 0
vn 0 -1 -2.220446E-16
vn 0 -1 -2.220446E-16
vn 0 -1 -2.220446E-16
vn 0 -1 -2.220446E-16
vn 0 1 2.220446E-16
vn 0 1 2.220446E-16
vn 0 1 2.220446E-16
vn 0 1 2.220446E-16
vn 0 -2.220446E-16 1
vn 0 -2.220446E-16 1
vn 0 -2.220446E-16 1
vn 0 -2.220446E-16 1
vn 1 0 0
vn 1 0 0
vn 1 0 0
vn 1 0 0
vn 0 2.220446E-16 -1
vn 0 2.220446E-16 -1
vn 0 2.220446E-16 -1
vn 0 2.220446E-16 -1
vn -1 0 0
vn -1 0 0
vn -1 0 0
vn -1 0 0
vn 0 -0.819152 0.5735764
vn 0 -0.819152 0.5735764
vn 0 -0.819152 0.5735764
vn 0 -0.819152 0.5735764
vn 0 0.81915206 -0.5735764
vn 0 0.81915206 -0.5735764
vn 0 0.81915206 -0.5735764
vn 0 0.81915206 -0.5735764
vn 0 0.5735763 0.81915206
vn 0 0.5735763 0.81915206
vn 0 0.5735763 0.81915206
vn 0 0.5735763 0.81915206
vn 1 0 0
vn 1 0 0
vn 1 0 0
vn 1 0 0
vn 0 -0.5735764 -0.819152
vn 0 -0.5735764 -0.819152
vn 0 -0.5735764 -0.819152
vn 0 -0.5735764 -0.819152
vn -1 0 0
vn -1 0 0
vn -1 0 0
vn -1 0 0
# 260 vertex normals

vt 0.46889067 0.78124005 0
vt 0.28140423 0.6875 0
vt 0.28140423 0.54688066 0
vt 0.5625 0.78124005 0
vt 0.65626 0.6875 0
vt 0.46890423 0.6875 0
vt 0.5625 0.6875 0
vt 0.65626 0.54688066 0
vt 0.5625 0.6875 0
vt 0.5625 0.54688066 0
vt 0.375 0.54688066 0
vt 0.375 0.6875 0
vt 0.46890423 0.54688066 0
vt 0.46890423 0.6875 0
vt 0.375 0.54688066 0
vt 0.375 0.6875 0
vt 0.46890423 0.54688066 0
vt 0.46890423 0.6875 0
vt 0.5625 0.54688066 0
vt 0.5625 0.6875 0
vt 0.5625 0.8903568 0
vt 0.4375 0.8903568 0
vt 0.32815433 0.8903568 0
vt 0.32815433 0.8 0
vt 0.6871766 0.8903568 0
vt 0.7968395 0.8903568 0
vt 0.5625 1 0
vt 0.6875 1 0
vt 0.7968395 0.8 0
vt 0.6718189 0.8903568 0
vt 0.6718189 0.8 0
vt 0.5625 0.8 0
vt 0.5625 0.8903568 0
vt 0.4375 0.8 0
vt 0.4375 0.8903568 0
vt 0.5625 0.8903568 0
vt 0.5625 0.8 0
vt 0.5625 0.8903568 0
vt 0.5625 1 0
vt 0.4375 1 0
vt 0.4375 0.8 0
vt 0.4375 0.8903568 0
vt 0.6718189 0.8 0
vt 0.6718189 0.8903568 0
vt 0.3125 0.8437457 0
vt 0.15622838 0.9375 0
vt 0.0625 0.9375 0
vt 0.0625 1 0
vt 0.21906844 0.8437457 0
vt 0.0625 0.8437457 0
vt 0.3125 0.9375 0
vt 0.21906844 0.9375 0
vt 0.15622838 0.8437457 0
vt 0.15622838 0.9375 0
vt 0.15622838 1 0
vt 0 0.8437457 0
vt 0.0625 0.8437457 0
vt 0.0625 0.9375 0
vt 0 0.9375 0
vt 0.25 0.9375 0
vt 0.21906844 0.8437457 0
vt 0.15622838 0.8437457 0
vt 0.15622838 0.9375 0
vt 0.0625 0.9375 0
vt 0.15622838 1 0
vt 0.25 1 0
vt 0.21906844 0.9375 0
vt 0.15622838 0.9375 0
vt 0.2968916 0.7812244 0
vt 0.2968916 0.7656307 0
vt 0.26565695 0.7656307 0
vt 0.26565695 0.7812244 0
vt 0.328044 0.7812082 0
vt 0.26565695 0.7344926 0
vt 0.3437598 0.7656307 0
vt 0.3125 0.7656307 0
vt 0.2968916 0.7344926 0
vt 0.2968916 0.7656307 0
vt 0.2968916 0.7812244 0
vt 0.25 0.7344926 0
vt 0.26565695 0.7344926 0
vt 0.26565695 0.7656307 0
vt 0.25 0.7656307 0
vt 0.328044 0.7656145 0
vt 0.3125 0.7344926 0
vt 0.2968916 0.7344926 0
vt 0.2968916 0.7656307 0
vt 0.26565695 0.7656307 0
vt 0.3437598 0.7344926 0
vt 0.3125 0.7344926 0
vt 0.3125 0.7656307 0
vt 0.2968916 0.7656307 0
vt 0.2968916 0.7812244 0
vt 0.2968916 0.7656307 0
vt 0.26565695 0.7656307 0
vt 0.26565695 0.7812244 0
vt 0.328044 0.7812082 0
vt 0.26565695 0.7344926 0
vt 0.3437598 0.7656307 0
vt 0.3125 0.7656307 0
vt 0.2968916 0.7344926 0
vt 0.2968916 0.7656307 0
vt 0.2968916 0.7812244 0
vt 0.25 0.7344926 0
vt 0.26565695 0.7344926 0
vt 0.26565695 0.7656307 0
vt 0.25 0.7656307 0
vt 0.328044 0.7656145 0
vt 0.3125 0.7344926 0
vt 0.2968916 0.7344926 0
vt 0.2968916 0.7656307 0
vt 0.26565695 0.7656307 0
vt 0.3437598 0.7344926 0
vt 0.3125 0.7344926 0
vt 0.3125 0.7656307 0
vt 0.2968916 0.7656307 0
vt 0.112500004 0.83750004 0
vt 0.11250001 0.7811756 0
vt 0.0625 0.7811756 0
vt 0.0625 0.83750004 0
vt 0.15622951 0.83750004 0
vt 0.0625 0.7375 0
vt 0.23437758 0.7811756 0
vt 0.1718486 0.7811756 0
vt 0.112500004 0.7375 0
vt 0.11250001 0.7811756 0
vt 0.112500004 0.83750004 0
vt 0 0.7375 0
vt 0.0625 0.7375 0
vt 0.0625 0.7811756 0
vt 0 0.7811756 0
vt 0.15622951 0.7811264 0
vt 0.17184858 0.7375 0
vt 0.112500004 0.7375 0
vt 0.112500004 0.7811756 0
vt 0.0625 0.7811756 0
vt 0.23437758 0.7375 0
vt 0.1718486 0.7375 0
vt 0.17184858 0.7811756 0
vt 0.11250001 0.7811756 0
vt 0.09366356 0.71874905 0
vt 0.0625 0.7187187 0
vt 0.031333625 0.7187187 0
vt 0.0625 0.7187187 0
vt 0.09367976 0.6875 0
vt 0.031299196 0.5625 0
vt 0.125 0.6875 0
vt 0.093679756 0.6875 0
vt 0.0625 0.5625 0
vt 0.031299204 0.6875 0
vt 0.0625 0.6875 0
vt 0 0.5625 0
vt 0.031299196 0.5625 0
vt 0.031299204 0.6875 0
vt 0 0.6875 0
vt 0.0625 0.6875 0
vt 0.09367976 0.5625 0
vt 0.0625 0.5625 0
vt 0.0625 0.6875 0
vt 0.031299204 0.6875 0
vt 0.125 0.5625 0
vt 0.093679756 0.5625 0
vt 0.09367976 0.6875 0
vt 0.0625 0.6875 0
vt 0.09366356 0.71874905 0
vt 0.0625 0.7187187 0
vt 0.031333625 0.7187187 0
vt 0.0625 0.7187187 0
vt 0.09367976 0.6875 0
vt 0.031299196 0.5625 0
vt 0.125 0.6875 0
vt 0.093679756 0.6875 0
vt 0.0625 0.5625 0
vt 0.031299204 0.6875 0
vt 0.0625 0.6875 0
vt 0 0.5625 0
vt 0.031299196 0.5625 0
vt 0.031299204 0.6875 0
vt 0 0.6875 0
vt 0.0625 0.6875 0
vt 0.09367976 0.5625 0
vt 0.0625 0.5625 0
vt 0.0625 0.6875 0
vt 0.031299204 0.6875 0
vt 0.125 0.5625 0
vt 0.093679756 0.5625 0
vt 0.09367976 0.6875 0
vt 0.0625 0.6875 0
vt 0.09366356 0.71874905 0
vt 0.0625 0.7187187 0
vt 0.031333625 0.7187187 0
vt 0.0625 0.7187187 0
vt 0.09367976 0.6875 0
vt 0.031299196 0.5625 0
vt 0.125 0.6875 0
vt 0.093679756 0.6875 0
vt 0.0625 0.5625 0
vt 0.031299204 0.6875 0
vt 0.0625 0.6875 0
vt 0 0.5625 0
vt 0.031299196 0.5625 0
vt 0.031299204 0.6875 0
vt 0 0.6875 0
vt 0.0625 0.6875 0
vt 0.09367976 0.5625 0
vt 0.0625 0.5625 0
vt 0.0625 0.6875 0
vt 0.031299204 0.6875 0
vt 0.125 0.5625 0
vt 0.093679756 0.5625 0
vt 0.09367976 0.6875 0
vt 0.0625 0.6875 0
vt 0.09366356 0.71874905 0
vt 0.0625 0.7187187 0
vt 0.031333625 0.7187187 0
vt 0.0625 0.7187187 0
vt 0.09367976 0.6875 0
vt 0.031299196 0.5625 0
vt 0.125 0.6875 0
vt 0.093679756 0.6875 0
vt 0.0625 0.5625 0
vt 0.031299204 0.6875 0
vt 0.0625 0.6875 0
vt 0 0.5625 0
vt 0.031299196 0.5625 0
vt 0.031299204 0.6875 0
vt 0 0.6875 0
vt 0.0625 0.6875 0
vt 0.09367976 0.5625 0
vt 0.0625 0.5625 0
vt 0.0625 0.6875 0
vt 0.031299204 0.6875 0
vt 0.125 0.5625 0
vt 0.093679756 0.5625 0
vt 0.09367976 0.6875 0
vt 0.0625 0.6875 0
vt 0.20308688 0.6875 0
vt 0.17192228 0.6875 0
vt 0.14067432 0.6875 0
vt 0.14067432 0.5625 0
vt 0.23436078 0.6875 0
vt 0.20308688 0.5625 0
vt 0.20308688 0.71858704 0
vt 0.23436078 0.71868587 0
vt 0.20308688 0.6875 0
vt 0.23436078 0.6875 0
vt 0.23436078 0.5625 0
vt 0.26250002 0.6875 0
vt 0.26250002 0.5625 0
vt 0.17192228 0.5625 0
vt 0.17192228 0.6875 0
vt 0.20308688 0.6875 0
vt 0.20308688 0.5625 0
vt 0.20308688 0.6875 0
vt 0.20308688 0.71858704 0
vt 0.17192228 0.71858704 0
vt 0.17192228 0.5625 0
vt 0.17192228 0.6875 0
vt 0.23436078 0.5625 0
vt 0.23436078 0.6875 0
# 260 texture coords

usemtl 02 - Default
s 1
f 1/16/1 3/15/2 4/17/3 2/18/4
f 5/5/5 6/9/6 8/10/7 7/8/8
f 2/14/9 4/13/10 8/19/11 6/20/12
f 4/4/13 3/1/14 7/6/15 8/7/16
f 3/11/17 1/12/18 5/2/19 7/3/20
f 9/35/21 11/34/22 12/37/23 10/38/24
f 13/26/25 14/30/26 16/31/27 15/29/28
f 9/22/29 10/36/30 14/39/31 13/40/32
f 10/33/33 12/32/34 16/43/35 14/44/36
f 12/25/37 11/21/38 15/27/39 16/28/40
f 11/41/41 9/42/42 13/23/43 15/24/44
f 17/46/45 19/65/46 20/66/47 18/60/48
f 21/47/49 22/54/50 24/55/51 23/48/52
f 17/50/53 18/53/54 22/63/55 21/64/56
f 18/62/57 20/61/58 24/67/59 22/68/60
f 20/49/61 19/45/62 23/51/63 24/52/64
f 19/56/65 17/57/66 21/58/67 23/59/68
f 25/70/69 27/69/70 28/73/71 26/84/72
f 29/71/73 30/78/74 32/79/75 31/72/76
f 25/74/77 26/77/78 30/87/79 29/88/80
f 26/86/81 28/85/82 32/91/83 30/92/84
f 28/90/85 27/89/86 31/75/87 32/76/88
f 27/80/89 25/81/90 29/82/91 31/83/92
f 33/94/93 35/93/94 36/97/95 34/108/96
f 37/95/97 38/102/98 40/103/99 39/96/100
f 33/98/101 34/101/102 38/111/103 37/112/104
f 34/110/105 36/109/106 40/115/107 38/116/108
f 36/114/109 35/113/110 39/99/111 40/100/112
f 35/104/113 33/105/114 37/106/115 39/107/116
f 41/118/117 43/117/118 44/121/119 42/132/120
f 45/119/121 46/126/122 48/127/123 47/120/124
f 41/122/125 42/125/126 46/135/127 45/136/128
f 42/134/129 44/133/130 48/139/131 46/140/132
f 44/138/133 43/137/134 47/123/135 48/124/136
f 43/128/137 41/129/138 45/130/139 47/131/140
f 49/142/141 51/141/142 52/145/143 50/156/144
f 53/143/145 54/150/146 56/151/147 55/144/148
f 49/146/149 50/149/150 54/159/151 53/160/152
f 50/158/153 52/157/154 56/163/155 54/164/156
f 52/162/157 51/161/158 55/147/159 56/148/160
f 51/152/161 49/153/162 53/154/163 55/155/164
f 57/166/165 59/165/166 60/169/167 58/180/168
f 61/167/169 62/174/170 64/175/171 63/168/172
f 57/170/173 58/173/174 62/183/175 61/184/176
f 58/182/177 60/181/178 64/187/179 62/188/180
f 60/186/181 59/185/182 63/171/183 64/172/184
f 59/176/185 57/177/186 61/178/187 63/179/188
f 65/190/189 67/189/190 68/193/191 66/204/192
f 69/191/193 70/198/194 72/199/195 71/192/196
f 65/194/197 66/197/198 70/207/199 69/208/200
f 66/206/201 68/205/202 72/211/203 70/212/204
f 68/210/205 67/209/206 71/195/207 72/196/208
f 67/200/209 65/201/210 69/202/211 71/203/212
f 73/214/213 75/213/214 76/217/215 74/228/216
f 77/215/217 78/222/218 80/223/219 79/216/220
f 73/218/221 74/221/222 78/231/223 77/232/224
f 74/230/225 76/229/226 80/235/227 78/236/228
f 76/234/229 75/233/230 79/219/231 80/220/232
f 75/224/233 73/225/234 77/226/235 79/227/236
f 81/251/237 83/250/238 84/253/239 82/254/240
f 85/248/241 86/246/242 88/247/243 87/249/244
f 81/238/245 82/252/246 86/255/247 85/256/248
f 82/245/249 84/242/250 88/259/251 86/260/252
f 84/241/253 83/237/254 87/243/255 88/244/256
f 83/257/257 81/258/258 85/239/259 87/240/260
#65 polygons

