# Blender 4.3.0 Alpha
# www.blender.org
mtllib star_chess.mtl
o StarDisk
o StarDisk.001
v 1.000000 0.100000 0.000000
v 0.404509 0.100000 -0.293893
v 0.309017 0.100000 -0.951057
v -0.154509 0.100000 -0.475528
v -0.809017 0.100000 -0.587785
v -0.500000 0.100000 -0.000000
v -0.809017 0.100000 0.587785
v -0.154509 0.100000 0.475528
v 0.309017 0.100000 0.951057
v 0.404509 0.100000 0.293893
v 1.000000 -0.100000 0.000000
v 0.404509 -0.100000 -0.293893
v 0.309017 -0.100000 -0.951057
v -0.154509 -0.100000 -0.475528
v -0.809017 -0.100000 -0.587785
v -0.500000 -0.100000 -0.000000
v -0.809017 -0.100000 0.587785
v -0.154509 -0.100000 0.475528
v 0.309017 -0.100000 0.951057
v 0.404509 -0.100000 0.293893
v 0.000000 0.100000 0.000000
v 0.000000 -0.100000 0.000000
vn -0.0000 1.0000 -0.0000
vn -0.0000 -1.0000 -0.0000
vn 0.4426 -0.0000 -0.8967
vn 0.9896 -0.0000 -0.1438
vn -0.7161 -0.0000 -0.6980
vn 0.1690 -0.0000 -0.9856
vn -0.8851 -0.0000 0.4653
vn -0.8851 -0.0000 -0.4653
vn 0.1690 -0.0000 0.9856
vn -0.7161 -0.0000 0.6980
vn 0.9896 -0.0000 0.1438
vn 0.4426 -0.0000 0.8967
s 0
usemtl RedMaterial
f 21//1 1//1 2//1
f 22//2 12//2 11//2
f 21//1 2//1 3//1
f 22//2 13//2 12//2
f 21//1 3//1 4//1
f 22//2 14//2 13//2
f 21//1 4//1 5//1
f 22//2 15//2 14//2
f 21//1 5//1 6//1
f 22//2 16//2 15//2
f 21//1 6//1 7//1
f 22//2 17//2 16//2
f 21//1 7//1 8//1
f 22//2 18//2 17//2
f 21//1 8//1 9//1
f 22//2 19//2 18//2
f 21//1 9//1 10//1
f 22//2 20//2 19//2
f 21//1 10//1 1//1
f 22//2 11//2 20//2
f 1//3 11//3 12//3 2//3
f 2//4 12//4 13//4 3//4
f 3//5 13//5 14//5 4//5
f 4//6 14//6 15//6 5//6
f 5//7 15//7 16//7 6//7
f 6//8 16//8 17//8 7//8
f 7//9 17//9 18//9 8//9
f 8//10 18//10 19//10 9//10
f 9//11 19//11 20//11 10//11
f 10//12 20//12 11//12 1//12
